<mxfile host="Electron" agent="Mozilla/5.0 (X11; Linux x86_64) AppleWebKit/537.36 (KHTML, like Gecko) draw.io/26.2.15 Chrome/134.0.6998.205 Electron/35.2.1 Safari/537.36" version="26.2.15">
  <diagram name="PÃ¡gina-1" id="XXRASxe_aMrs5WXhI0Pi">
    <mxGraphModel dx="3389" dy="1403" grid="1" gridSize="10" guides="1" tooltips="1" connect="1" arrows="1" fold="1" page="1" pageScale="1" pageWidth="827" pageHeight="1169" math="0" shadow="0">
      <root>
        <mxCell id="0" />
        <mxCell id="1" parent="0" />
        <mxCell id="7Tm4FXXBIRCJir7K7m3A-5" value="frame" style="shape=umlFrame;whiteSpace=wrap;html=1;pointerEvents=0;" parent="1" vertex="1">
          <mxGeometry x="-530" y="520" width="1130" height="2140" as="geometry" />
        </mxCell>
        <mxCell id="eHUid5446eYw3jC1kt_g-3" value="Aspirante" style="shape=umlActor;verticalLabelPosition=bottom;verticalAlign=top;html=1;outlineConnect=0;" vertex="1" parent="1">
          <mxGeometry x="-590" y="1470" width="30" height="60" as="geometry" />
        </mxCell>
        <mxCell id="eHUid5446eYw3jC1kt_g-10" value="CU01-Iniciar Sesion" style="ellipse;whiteSpace=wrap;html=1;" vertex="1" parent="1">
          <mxGeometry x="-60" y="600" width="120" height="80" as="geometry" />
        </mxCell>
        <mxCell id="eHUid5446eYw3jC1kt_g-11" value="CU03-Cerrar Sesion" style="ellipse;whiteSpace=wrap;html=1;" vertex="1" parent="1">
          <mxGeometry x="-60" y="710" width="120" height="80" as="geometry" />
        </mxCell>
        <mxCell id="eHUid5446eYw3jC1kt_g-12" value="CU-4-Consultar Convocatorias" style="ellipse;whiteSpace=wrap;html=1;" vertex="1" parent="1">
          <mxGeometry x="-60" y="1030" width="120" height="80" as="geometry" />
        </mxCell>
        <mxCell id="eHUid5446eYw3jC1kt_g-14" value="CU-4-Consultar Cargos" style="ellipse;whiteSpace=wrap;html=1;" vertex="1" parent="1">
          <mxGeometry x="-60" y="1130" width="120" height="70" as="geometry" />
        </mxCell>
        <mxCell id="eHUid5446eYw3jC1kt_g-15" value="CU-4-Aplicar Postulacion&lt;div&gt;&lt;br&gt;&lt;/div&gt;" style="ellipse;whiteSpace=wrap;html=1;" vertex="1" parent="1">
          <mxGeometry x="-60" y="2190" width="120" height="80" as="geometry" />
        </mxCell>
        <mxCell id="eHUid5446eYw3jC1kt_g-20" value="CU-4-Registrar Hoja de vida" style="ellipse;whiteSpace=wrap;html=1;" vertex="1" parent="1">
          <mxGeometry x="-60" y="1250" width="120" height="70" as="geometry" />
        </mxCell>
        <mxCell id="eHUid5446eYw3jC1kt_g-21" value="CU-4-Registrar Estudios" style="ellipse;whiteSpace=wrap;html=1;" vertex="1" parent="1">
          <mxGeometry x="-60" y="1570" width="120" height="70" as="geometry" />
        </mxCell>
        <mxCell id="eHUid5446eYw3jC1kt_g-22" value="CU-4-Registrar Experiencia Laboral" style="ellipse;whiteSpace=wrap;html=1;" vertex="1" parent="1">
          <mxGeometry x="-60" y="1880" width="120" height="70" as="geometry" />
        </mxCell>
        <mxCell id="eHUid5446eYw3jC1kt_g-23" value="CU-4-Consultar Experiencia Laboral" style="ellipse;whiteSpace=wrap;html=1;" vertex="1" parent="1">
          <mxGeometry x="-60" y="1980" width="120" height="70" as="geometry" />
        </mxCell>
        <mxCell id="eHUid5446eYw3jC1kt_g-24" value="CU-4-Consultar Hoja de vida" style="ellipse;whiteSpace=wrap;html=1;" vertex="1" parent="1">
          <mxGeometry x="-60" y="1350" width="120" height="70" as="geometry" />
        </mxCell>
        <mxCell id="eHUid5446eYw3jC1kt_g-25" value="CU-4-Consultar Estudios" style="ellipse;whiteSpace=wrap;html=1;" vertex="1" parent="1">
          <mxGeometry x="-60" y="1683" width="120" height="70" as="geometry" />
        </mxCell>
        <mxCell id="eHUid5446eYw3jC1kt_g-27" value="CU-5-Consulta Entrevista" style="ellipse;whiteSpace=wrap;html=1;" vertex="1" parent="1">
          <mxGeometry x="-60" y="2520" width="120" height="80" as="geometry" />
        </mxCell>
        <mxCell id="eHUid5446eYw3jC1kt_g-28" value="CU-5-Consulta Notificaciones" style="ellipse;whiteSpace=wrap;html=1;" vertex="1" parent="1">
          <mxGeometry x="-60" y="2410" width="120" height="80" as="geometry" />
        </mxCell>
        <mxCell id="eHUid5446eYw3jC1kt_g-30" style="edgeStyle=orthogonalEdgeStyle;rounded=0;orthogonalLoop=1;jettySize=auto;html=1;entryX=1;entryY=0.5;entryDx=0;entryDy=0;" edge="1" parent="1" source="eHUid5446eYw3jC1kt_g-29" target="eHUid5446eYw3jC1kt_g-10">
          <mxGeometry relative="1" as="geometry" />
        </mxCell>
        <mxCell id="eHUid5446eYw3jC1kt_g-31" value="&amp;lt;&amp;lt;Extend&amp;gt;&amp;gt;" style="edgeLabel;html=1;align=center;verticalAlign=middle;resizable=0;points=[];" vertex="1" connectable="0" parent="eHUid5446eYw3jC1kt_g-30">
          <mxGeometry x="-0.0037" y="2" relative="1" as="geometry">
            <mxPoint y="-12" as="offset" />
          </mxGeometry>
        </mxCell>
        <mxCell id="eHUid5446eYw3jC1kt_g-29" value="CU01-Recuperar Contrase;a" style="ellipse;whiteSpace=wrap;html=1;" vertex="1" parent="1">
          <mxGeometry x="120" y="600" width="120" height="80" as="geometry" />
        </mxCell>
        <mxCell id="eHUid5446eYw3jC1kt_g-32" value="CU03-Consultar Perfil" style="ellipse;whiteSpace=wrap;html=1;" vertex="1" parent="1">
          <mxGeometry x="-60" y="830" width="120" height="80" as="geometry" />
        </mxCell>
        <mxCell id="eHUid5446eYw3jC1kt_g-33" value="CU03-Editar Perfil" style="ellipse;whiteSpace=wrap;html=1;" vertex="1" parent="1">
          <mxGeometry x="-60" y="930" width="120" height="80" as="geometry" />
        </mxCell>
        <mxCell id="eHUid5446eYw3jC1kt_g-34" value="CU-4-Editar Hoja de vida" style="ellipse;whiteSpace=wrap;html=1;" vertex="1" parent="1">
          <mxGeometry x="-60" y="1470" width="120" height="60" as="geometry" />
        </mxCell>
        <mxCell id="eHUid5446eYw3jC1kt_g-35" value="CU-4-Editar Estudios" style="ellipse;whiteSpace=wrap;html=1;" vertex="1" parent="1">
          <mxGeometry x="-60" y="1780" width="120" height="70" as="geometry" />
        </mxCell>
        <mxCell id="eHUid5446eYw3jC1kt_g-36" value="CU-4- Editar Experiencia Laboral" style="ellipse;whiteSpace=wrap;html=1;" vertex="1" parent="1">
          <mxGeometry x="-60" y="2080" width="120" height="70" as="geometry" />
        </mxCell>
        <mxCell id="eHUid5446eYw3jC1kt_g-37" value="CU-4-Consultar Postulaciones" style="ellipse;whiteSpace=wrap;html=1;" vertex="1" parent="1">
          <mxGeometry x="-60" y="2300" width="120" height="80" as="geometry" />
        </mxCell>
        <mxCell id="eHUid5446eYw3jC1kt_g-52" value="" style="endArrow=classic;html=1;rounded=0;entryX=0;entryY=0.5;entryDx=0;entryDy=0;" edge="1" parent="1" target="eHUid5446eYw3jC1kt_g-10">
          <mxGeometry width="50" height="50" relative="1" as="geometry">
            <mxPoint x="-550" y="1470" as="sourcePoint" />
            <mxPoint x="500" y="1240" as="targetPoint" />
          </mxGeometry>
        </mxCell>
        <mxCell id="eHUid5446eYw3jC1kt_g-53" value="" style="endArrow=classic;html=1;rounded=0;entryX=0;entryY=0.5;entryDx=0;entryDy=0;" edge="1" parent="1" target="eHUid5446eYw3jC1kt_g-11">
          <mxGeometry width="50" height="50" relative="1" as="geometry">
            <mxPoint x="-540" y="1470" as="sourcePoint" />
            <mxPoint x="500" y="1240" as="targetPoint" />
          </mxGeometry>
        </mxCell>
        <mxCell id="eHUid5446eYw3jC1kt_g-54" value="" style="endArrow=classic;html=1;rounded=0;entryX=0;entryY=0.5;entryDx=0;entryDy=0;" edge="1" parent="1" target="eHUid5446eYw3jC1kt_g-32">
          <mxGeometry width="50" height="50" relative="1" as="geometry">
            <mxPoint x="-540" y="1480" as="sourcePoint" />
            <mxPoint x="500" y="1240" as="targetPoint" />
          </mxGeometry>
        </mxCell>
        <mxCell id="eHUid5446eYw3jC1kt_g-55" value="" style="endArrow=classic;html=1;rounded=0;entryX=-0.024;entryY=0.571;entryDx=0;entryDy=0;entryPerimeter=0;" edge="1" parent="1" target="eHUid5446eYw3jC1kt_g-33">
          <mxGeometry width="50" height="50" relative="1" as="geometry">
            <mxPoint x="-540" y="1490" as="sourcePoint" />
            <mxPoint x="-30" y="1290" as="targetPoint" />
          </mxGeometry>
        </mxCell>
        <mxCell id="eHUid5446eYw3jC1kt_g-57" value="" style="endArrow=classic;html=1;rounded=0;entryX=0;entryY=0.5;entryDx=0;entryDy=0;" edge="1" parent="1" target="eHUid5446eYw3jC1kt_g-12">
          <mxGeometry width="50" height="50" relative="1" as="geometry">
            <mxPoint x="-540" y="1500" as="sourcePoint" />
            <mxPoint x="-30" y="1290" as="targetPoint" />
          </mxGeometry>
        </mxCell>
        <mxCell id="eHUid5446eYw3jC1kt_g-58" value="" style="endArrow=classic;html=1;rounded=0;entryX=0;entryY=0.5;entryDx=0;entryDy=0;" edge="1" parent="1" target="eHUid5446eYw3jC1kt_g-14">
          <mxGeometry width="50" height="50" relative="1" as="geometry">
            <mxPoint x="-540" y="1510" as="sourcePoint" />
            <mxPoint x="-30" y="1290" as="targetPoint" />
          </mxGeometry>
        </mxCell>
        <mxCell id="eHUid5446eYw3jC1kt_g-59" value="" style="endArrow=classic;html=1;rounded=0;entryX=0;entryY=0.5;entryDx=0;entryDy=0;" edge="1" parent="1" target="eHUid5446eYw3jC1kt_g-20">
          <mxGeometry width="50" height="50" relative="1" as="geometry">
            <mxPoint x="-540" y="1520" as="sourcePoint" />
            <mxPoint x="-30" y="1290" as="targetPoint" />
          </mxGeometry>
        </mxCell>
        <mxCell id="eHUid5446eYw3jC1kt_g-60" value="" style="endArrow=classic;html=1;rounded=0;entryX=0;entryY=0.5;entryDx=0;entryDy=0;" edge="1" parent="1" target="eHUid5446eYw3jC1kt_g-34">
          <mxGeometry width="50" height="50" relative="1" as="geometry">
            <mxPoint x="-540" y="1530" as="sourcePoint" />
            <mxPoint x="-30" y="1600" as="targetPoint" />
          </mxGeometry>
        </mxCell>
        <mxCell id="eHUid5446eYw3jC1kt_g-61" value="" style="endArrow=classic;html=1;rounded=0;entryX=0;entryY=0.5;entryDx=0;entryDy=0;" edge="1" parent="1" target="eHUid5446eYw3jC1kt_g-21">
          <mxGeometry width="50" height="50" relative="1" as="geometry">
            <mxPoint x="-540" y="1540" as="sourcePoint" />
            <mxPoint x="-30" y="1600" as="targetPoint" />
          </mxGeometry>
        </mxCell>
        <mxCell id="eHUid5446eYw3jC1kt_g-62" value="" style="endArrow=classic;html=1;rounded=0;entryX=0;entryY=0.5;entryDx=0;entryDy=0;" edge="1" parent="1" target="eHUid5446eYw3jC1kt_g-25">
          <mxGeometry width="50" height="50" relative="1" as="geometry">
            <mxPoint x="-540" y="1550" as="sourcePoint" />
            <mxPoint x="-30" y="1600" as="targetPoint" />
          </mxGeometry>
        </mxCell>
        <mxCell id="eHUid5446eYw3jC1kt_g-63" value="" style="endArrow=classic;html=1;rounded=0;entryX=0;entryY=0.5;entryDx=0;entryDy=0;" edge="1" parent="1" target="eHUid5446eYw3jC1kt_g-35">
          <mxGeometry width="50" height="50" relative="1" as="geometry">
            <mxPoint x="-540" y="1560" as="sourcePoint" />
            <mxPoint x="-30" y="1810" as="targetPoint" />
          </mxGeometry>
        </mxCell>
        <mxCell id="eHUid5446eYw3jC1kt_g-64" value="" style="endArrow=classic;html=1;rounded=0;entryX=0;entryY=0.5;entryDx=0;entryDy=0;" edge="1" parent="1" target="eHUid5446eYw3jC1kt_g-22">
          <mxGeometry width="50" height="50" relative="1" as="geometry">
            <mxPoint x="-540" y="1570" as="sourcePoint" />
            <mxPoint x="-30" y="1810" as="targetPoint" />
          </mxGeometry>
        </mxCell>
        <mxCell id="eHUid5446eYw3jC1kt_g-65" value="" style="endArrow=classic;html=1;rounded=0;entryX=0;entryY=0.5;entryDx=0;entryDy=0;" edge="1" parent="1" target="eHUid5446eYw3jC1kt_g-23">
          <mxGeometry width="50" height="50" relative="1" as="geometry">
            <mxPoint x="-540" y="1580" as="sourcePoint" />
            <mxPoint x="-30" y="1810" as="targetPoint" />
          </mxGeometry>
        </mxCell>
        <mxCell id="eHUid5446eYw3jC1kt_g-66" value="" style="endArrow=classic;html=1;rounded=0;entryX=0;entryY=0.5;entryDx=0;entryDy=0;" edge="1" parent="1" target="eHUid5446eYw3jC1kt_g-36">
          <mxGeometry width="50" height="50" relative="1" as="geometry">
            <mxPoint x="-540" y="1590" as="sourcePoint" />
            <mxPoint x="-30" y="1810" as="targetPoint" />
          </mxGeometry>
        </mxCell>
        <mxCell id="eHUid5446eYw3jC1kt_g-67" value="" style="endArrow=classic;html=1;rounded=0;entryX=0;entryY=0.5;entryDx=0;entryDy=0;" edge="1" parent="1" target="eHUid5446eYw3jC1kt_g-15">
          <mxGeometry width="50" height="50" relative="1" as="geometry">
            <mxPoint x="-540" y="1600" as="sourcePoint" />
            <mxPoint x="-30" y="1810" as="targetPoint" />
          </mxGeometry>
        </mxCell>
        <mxCell id="eHUid5446eYw3jC1kt_g-68" value="" style="endArrow=classic;html=1;rounded=0;entryX=0;entryY=0.5;entryDx=0;entryDy=0;" edge="1" parent="1" target="eHUid5446eYw3jC1kt_g-37">
          <mxGeometry width="50" height="50" relative="1" as="geometry">
            <mxPoint x="-540" y="1610" as="sourcePoint" />
            <mxPoint x="-30" y="1930" as="targetPoint" />
          </mxGeometry>
        </mxCell>
        <mxCell id="eHUid5446eYw3jC1kt_g-69" value="" style="endArrow=classic;html=1;rounded=0;entryX=0;entryY=0.5;entryDx=0;entryDy=0;" edge="1" parent="1" target="eHUid5446eYw3jC1kt_g-28">
          <mxGeometry width="50" height="50" relative="1" as="geometry">
            <mxPoint x="-540" y="1620" as="sourcePoint" />
            <mxPoint x="-30" y="1920" as="targetPoint" />
          </mxGeometry>
        </mxCell>
        <mxCell id="eHUid5446eYw3jC1kt_g-70" value="" style="endArrow=classic;html=1;rounded=0;entryX=0;entryY=0.5;entryDx=0;entryDy=0;" edge="1" parent="1" target="eHUid5446eYw3jC1kt_g-27">
          <mxGeometry width="50" height="50" relative="1" as="geometry">
            <mxPoint x="-540" y="1630" as="sourcePoint" />
            <mxPoint x="-30" y="2230" as="targetPoint" />
          </mxGeometry>
        </mxCell>
      </root>
    </mxGraphModel>
  </diagram>
</mxfile>
